<?xml version="1.0" encoding="UTF-8"?>
<svg xmlns="http://www.w3.org/2000/svg" version="1.1" viewBox="0 0 61.6 30.19">
  <defs>
    <style>
      .cls-1 {
        fill: #fff;
        opacity: .15;
      }

      .cls-1, .cls-2, .cls-3 {
        fill-rule: evenodd;
      }

      .cls-4, .cls-2 {
        fill: #47475e;
      }

      .cls-3 {
        fill: #e9bf54;
      }
    </style>
  </defs>
  
  <g>
    <g id="Layer_1">
      <polygon class="cls-2" points="61.6 11 30.8 22 0 11 30.8 0 61.6 11"/>
      <ellipse class="cls-4" cx="30.8" cy="23" rx="15" ry="4"/>
      <g>
        <path class="cls-2" d="M15.81,23.06s2.31-2.32,6.92-2.32,8.07,2.31,8.07,2.31c0,0,3.46-2.31,8.07-2.31s6.93,2.26,6.93,2.26v-10.39s-6.93-4.61-15-4.61-14.99,4.61-14.99,4.61v10.45Z"/>
        <path class="cls-1" d="M15.81,23.06s2.31-2.32,6.92-2.32,8.07,2.31,8.07,2.31c0,0,3.46-2.31,8.07-2.31s6.93,2.26,6.93,2.26v-10.39s-6.93-4.61-15-4.61-14.99,4.61-14.99,4.61v10.45Z"/>
      </g>
      <path class="cls-3" d="M51.8,30.19V12.5c0-1.38,1.12-2.5,2.5-2.5s2.5,1.12,2.5,2.5v14.81l-5,2.89Z"/>
    </g>
  </g>
</svg>